<svg width="73" height="69" viewBox="0 0 73 69" fill="none" xmlns="http://www.w3.org/2000/svg">
<path d="M51.6841 2.93819C46.6471 2.93819 42.5638 6.73991 42.5638 11.4296V17.0905C42.5638 21.7802 46.6471 25.5819 51.6841 25.5819H63.8446C68.8816 25.5819 72.965 21.7802 72.965 17.0905V11.4296C72.965 6.73991 68.8816 2.93819 63.8446 2.93819H51.6841Z" fill="white"/>
<path d="M9.12249 19.921C4.08546 19.921 0.00213623 23.7227 0.00213623 28.4123V39.7342C0.00213623 44.4239 4.08546 48.2256 9.12249 48.2256H24.3231C29.3601 48.2256 33.4434 44.4239 33.4434 39.7342V28.4123C33.4434 23.7227 29.3601 19.921 24.3231 19.921H9.12249Z" fill="white"/>
<rect x="57.7644" y="2.93819" width="15.2006" height="8.49139" fill="white"/>
<path d="M42.5638 14.26C42.5638 8.59912 45.6039 5.76865 51.6842 5.76865H57.7644V8.59912L51.6842 8.59911C48.6441 8.59912 45.6039 11.4296 45.6039 14.26V22.7514H42.5638V14.26Z" fill="#24306E"/>
<path d="M45.6039 25.5819H42.5638V22.7514H39.5237V28.4123H36.4836V31.2428H39.5237V28.4123H45.6039V25.5819Z" fill="#24306E"/>
<path d="M72.965 17.0905C72.965 22.7514 69.9249 25.5819 63.8446 25.5819H45.6039V22.7514H63.8446C66.8848 22.7514 69.9249 19.921 69.9249 17.0905V14.26H72.965V17.0905Z" fill="#24306E"/>
<path d="M54.7243 17.0905H51.6842V19.921H54.7243V17.0905Z" fill="#24306E"/>
<path d="M60.8045 17.0905H57.7644V19.921H60.8045V17.0905Z" fill="#24306E"/>
<path d="M13.4691 28.927H16.8359V32.0148H13.4691V28.927Z" fill="#24306E"/>
<path d="M13.4691 38.1903H23.5694V41.2781H13.4691V38.1903Z" fill="#24306E"/>
<path d="M10.1023 35.1025H13.469L13.4691 38.1903L10.1023 38.1903V35.1025Z" fill="#24306E"/>
<path d="M23.5693 35.1025H26.936V38.1903L23.5694 38.1903L23.5693 35.1025Z" fill="#24306E"/>
<path d="M20.2026 28.927H23.5694V32.0148H20.2026V28.927Z" fill="#24306E"/>
<path d="M3.04225 32.1863V38.4762H0.00213623V32.1863C0.00213623 25.8964 3.31869 22.7514 9.95162 22.7514H23.2175L23.2175 25.5819H9.95162C6.63515 25.5819 3.04225 29.0413 3.04225 32.1863Z" fill="#24306E"/>
<path d="M9.95175 48.2256C3.3188 48.2256 0.00213623 44.7661 0.00213623 38.4762H3.04225C3.04225 42.5646 6.08237 45.3951 10.5045 45.3951L30.4033 45.3951V48.2256L9.95175 48.2256Z" fill="#24306E"/>
<path d="M36.4835 48.2256H33.4434V32.1863C33.4434 25.5819 30.4033 22.7514 23.2175 22.7514L23.2175 25.5819C27.3632 25.5819 30.4033 28.4123 30.4033 32.1863V48.2256H33.4434V51.056L36.4835 51.056V48.2256Z" fill="#24306E"/>
<path d="M30.4033 11.4296C27.3632 11.4296 24.3231 14.26 24.3231 17.0905V22.7514H21.283V17.0905C21.283 11.4296 24.3231 8.59911 30.4033 8.59911H45.6039V11.4296L30.4033 11.4296Z" fill="#24306E"/>
<path d="M21.283 59.5474C21.283 65.2083 24.3231 68.0388 30.4033 68.0388H36.4835V65.2083H30.4033C27.3632 65.2083 24.3231 62.3779 24.3231 59.5474V45.3951H21.283V59.5474Z" fill="#24306E"/>
<path d="M48.644 59.5474C48.644 62.3779 45.6039 65.2083 42.5638 65.2083V68.0388C48.644 68.0388 51.6841 65.2083 51.6841 59.5474V25.5819H48.644V59.5474Z" fill="#24306E"/>
<path d="M39.5237 59.5474H33.4434V62.3779H39.5237V59.5474Z" fill="#24306E"/>
<path d="M60.8047 2.93819V0.107727H69.9251V2.93819L72.9652 2.93819V11.4296H69.9251V14.26H60.8047V11.4296L60.8047 8.59911H63.8448V11.4296H66.8849V8.59911H69.9251V5.76865H66.8849V2.93819H63.8448V5.76865H60.8047V11.4296L57.7644 11.429V2.93763L60.8047 2.93819Z" fill="#24306E"/>
</svg>
