<svg id="Слой_1" data-name="Слой 1" xmlns="http://www.w3.org/2000/svg" viewBox="0 0 79.04 77.58"><defs><style>.cls-1,.cls-2{fill:#fff;}.cls-2{fill-rule:evenodd;}</style></defs><path class="cls-1" d="M70.11,57a12.9,12.9,0,0,0,6.29-11,13.18,13.18,0,0,0-26.35,0,12.9,12.9,0,0,0,6.29,11,16.61,16.61,0,0,0-4.76,2.93,13.71,13.71,0,0,0-4.82,10.28v8.08H79.69V70.16a13.71,13.71,0,0,0-4.82-10.28A16.61,16.61,0,0,0,70.11,57Z" transform="translate(-0.65 -0.66)"/><path class="cls-1" d="M30.29,33.75h3.29v9.73H30.29Z" transform="translate(-0.65 -0.66)"/><path class="cls-1" d="M30.29,46.73h3.29V50H30.29Z" transform="translate(-0.65 -0.66)"/><path class="cls-1" d="M33.58,20.77V17.53q9.89,0,9.88,9.73H40.17A7,7,0,0,0,33.58,20.77Z" transform="translate(-0.65 -0.66)"/><path class="cls-1" d="M33.58,33.75V37q9.89,0,9.88-9.74H40.17A7,7,0,0,1,33.58,33.75Z" transform="translate(-0.65 -0.66)"/><path class="cls-1" d="M33.58,20.77V17.53q-9.87,0-9.88,9.73H27A7,7,0,0,1,33.58,20.77Z" transform="translate(-0.65 -0.66)"/><path class="cls-1" d="M56.68,7.13H17.34v3.18H56.68c3.28,0,6.56,3.19,6.56,6.37V35.79h3.28V16.68Q66.52,7.13,56.68,7.13Z" transform="translate(-0.65 -0.66)"/><path class="cls-1" d="M17.12,55.61c-3.15,0-6.59-2.88-6.59-5.93V16H7.24V49.68q0,9.16,9.44,9.17H35.57V55.61Z" transform="translate(-0.65 -0.66)"/><path class="cls-1" d="M37.93,58.85V55.61l6.29-.11v3.35Z" transform="translate(-0.65 -0.66)"/><path class="cls-1" d="M50.05,42.68q0-9.69,9.88-9.69h6.59q9.89,0,9.88,9.69h3.29v6.47H76.4q0,9.69-9.88,9.7V55.61c3.29,0,6.59-3.23,6.59-6.46V42.68c0-3.23-3.3-6.46-6.59-6.46H59.93c-3.29,0-6.58,3.23-6.58,6.46v6.47H46.76V42.68Z" transform="translate(-0.65 -0.66)"/><rect class="cls-1" y="3.23" width="16.47" height="9.7"/><path class="cls-2" d="M3.94,3.91V.66h9.88V3.89h3.3v9.75h-3.3v3.24H3.94V13.64H.65V3.91Zm3.3,9.73V10.39H3.94V7.15h3.3V3.91h3.29V7.15h3.29V10.4H10.53v3.25Z" transform="translate(-0.65 -0.66)"/></svg>