<svg width="77" height="70" viewBox="0 0 77 70" fill="none" xmlns="http://www.w3.org/2000/svg">
<path d="M13.2963 12.8927C13.2963 7.50714 17.6621 3.14131 23.0476 3.14131H32.0391C37.4246 3.14131 41.7905 7.50714 41.7905 12.8927V20.5544H13.2963V12.8927Z" fill="#24306E"/>
<path d="M13.6055 20.5544C6.96412 20.5544 3.7981 23.4566 3.7981 27.2294V54.2318C3.7981 59.5211 7.44303 61.1849 11.9393 61.1849H36.1676C36.1761 61.185 36.1847 61.185 36.1933 61.185H48.5747C50.0734 61.185 51.2884 59.7558 51.2884 57.9926V46.9643C51.2884 45.2012 50.0734 43.7719 48.5747 43.7719H44.9564V27.2294C44.9564 21.9401 43.3734 20.5544 38.8771 20.5544H13.6055Z" fill="#24306E"/>
<path fill-rule="evenodd" clip-rule="evenodd" d="M13.2962 20.5544L38.6243 20.5544C41.7904 20.5544 44.9564 23.4566 44.9564 26.3588V37.9675L29.1263 37.9675V40.8697L44.9564 40.8697V43.7719L29.1263 43.7719V46.6741H44.9564V51.0274C44.9564 51.8288 45.6651 52.4785 46.5394 52.4785C47.4137 52.4785 48.1224 51.8288 48.1224 51.0274V46.6741H51.2886V58.2828H38.6241V61.185L76.6164 61.185V58.2828H73.4506V43.7719C73.4506 37.9675 70.2846 35.0654 63.9525 35.0654H54.4543C52.7059 35.0655 51.2886 36.3648 51.2886 37.9675V43.7719H48.1224V26.3588C48.1224 20.5544 44.9564 17.6522 38.6243 17.6522H13.2962C6.96412 17.6522 3.7981 20.5544 3.7981 26.3588L3.7981 58.2828C2.04955 58.2828 0.63208 59.5822 0.63208 61.185H29.1263V58.2828H6.96412V46.6741H25.9603V43.7719L6.96412 43.7719V40.8697L25.9603 40.8697V37.9675L6.96412 37.9675L6.96412 26.3588C6.96412 23.4566 10.1301 20.5544 13.2962 20.5544ZM70.2846 49.5763V43.7719C70.2846 40.8697 67.1185 37.9675 63.9525 37.9675H54.4546V58.2828H70.2846V52.4785H60.7865C60.7865 50.8756 62.204 49.5763 63.9525 49.5763H70.2846Z" fill="white"/>
<path d="M35.4583 58.2828H32.2923V61.185H35.4583V58.2828Z" fill="white"/>
<path d="M25.9604 0.23912H29.1264V6.04349H25.9604V0.23912Z" fill="white"/>
<path d="M22.7943 8.94568C21.0458 8.94568 19.6283 10.245 19.6283 11.8479V20.5544H22.7943V11.8479H32.2924V20.5544H35.4584V11.8479C35.4584 10.245 34.0409 8.94568 32.2924 8.94568H22.7943Z" fill="white"/>
<path d="M13.2963 3.14131H10.1302V6.04349H13.2963V8.94568H16.4623V6.04349H13.2963V3.14131Z" fill="white"/>
<path d="M41.7905 6.04349H38.6244V8.94568H41.7905V6.04349Z" fill="white"/>
<path d="M41.7905 6.04349H44.9565V3.14131H41.7905V6.04349Z" fill="white"/>
<path d="M16.4623 14.7501V11.8479H10.1302V14.7501H16.4623Z" fill="white"/>
<path d="M44.9565 11.8479V14.7501H38.6244V11.8479H44.9565Z" fill="white"/>
<path d="M14.879 69.8916C19.2504 69.8916 22.7941 66.6432 22.7941 62.6361C22.7941 58.629 19.2504 55.3806 14.879 55.3806C10.5077 55.3806 6.96399 58.629 6.96399 62.6361C6.96399 66.6432 10.5077 69.8916 14.879 69.8916Z" fill="white"/>
<path d="M56.0373 69.8916C60.4087 69.8916 63.9524 66.6432 63.9524 62.6361C63.9524 58.629 60.4087 55.3806 56.0373 55.3806C51.666 55.3806 48.1223 58.629 48.1223 62.6361C48.1223 66.6432 51.666 69.8916 56.0373 69.8916Z" fill="white"/>
<path d="M14.8792 66.9894C17.502 66.9894 19.6282 65.0404 19.6282 62.6361C19.6282 60.2319 17.502 58.2829 14.8792 58.2829C12.2563 58.2829 10.1301 60.2319 10.1301 62.6361C10.1301 65.0404 12.2563 66.9894 14.8792 66.9894Z" fill="#24306E"/>
<path d="M56.0374 66.9894C58.6603 66.9894 60.7865 65.0404 60.7865 62.6361C60.7865 60.2319 58.6603 58.2829 56.0374 58.2829C53.4146 58.2829 51.2884 60.2319 51.2884 62.6361C51.2884 65.0404 53.4146 66.9894 56.0374 66.9894Z" fill="#24306E"/>
<path d="M22.7944 37.9675V35.0654H32.2925V37.9675L35.4585 37.9675V46.6741H32.2925V49.5763H22.7944V46.6741L22.7944 43.7719H25.9604V46.6741H29.1264V43.7719H32.2925V40.8697H29.1264V37.9675H25.9604V40.8697H22.7944V46.6741L19.6282 46.6735V37.967L22.7944 37.9675Z" fill="white"/>
</svg>
