<svg id="Слой_1" data-name="Слой 1" xmlns="http://www.w3.org/2000/svg" viewBox="0 0 75.98 69.65"><defs><style>.cls-1,.cls-3{fill:#24306e;}.cls-2{fill:#fff;}.cls-3{fill-rule:evenodd;}.cls-4{fill:#27357a;}</style></defs><path class="cls-1" d="M13.3,12.89a9.75,9.75,0,0,1,9.75-9.75h9a9.76,9.76,0,0,1,9.75,9.75v7.66H13.3Z" transform="translate(-0.63 -0.24)"/><path class="cls-2" d="M14,20.55c-6.64,0-9.81,2.91-9.81,6.68v27c0,5.29,3.65,7,8.14,7H49A3,3,0,0,0,51.69,58V47A3,3,0,0,0,49,43.77H45.36V27.23c0-5.29-1.58-6.68-6.08-6.68Z" transform="translate(-0.63 -0.24)"/><path class="cls-3" d="M13.3,20.55H38.62c3.17,0,6.34,2.91,6.34,5.81V38H29.13v2.9H45v2.9H29.13v2.9H45V51a1.59,1.59,0,0,0,3.16,0V46.67h3.17V58.28H38.62v2.91h38V58.28H73.45V43.77q0-8.7-9.5-8.7h-9.5A3,3,0,0,0,51.29,38v5.8H48.12V26.36q0-8.71-9.5-8.71H13.3q-9.51,0-9.5,8.71V58.28A3,3,0,0,0,.63,61.19h28.5V58.28H7V46.67H26v-2.9H7v-2.9H26V38H7V26.36C7,23.46,10.13,20.55,13.3,20.55Zm57,29V43.77c0-2.9-3.16-5.8-6.33-5.8h-9.5V58.28H70.28v-5.8H60.79A3,3,0,0,1,64,49.58Z" transform="translate(-0.63 -0.24)"/><path class="cls-2" d="M35.46,58.28H32.29v2.91h3.17Z" transform="translate(-0.63 -0.24)"/><path class="cls-2" d="M26,.24h3.17V6H26Z" transform="translate(-0.63 -0.24)"/><path class="cls-2" d="M22.79,9a3,3,0,0,0-3.16,2.9v8.7h3.16v-8.7h9.5v8.7h3.17v-8.7A3,3,0,0,0,32.29,9Z" transform="translate(-0.63 -0.24)"/><path class="cls-2" d="M13.3,3.14H10.13V6H13.3V9h3.16V6H13.3Z" transform="translate(-0.63 -0.24)"/><path class="cls-2" d="M41.79,6H38.62V9h3.17Z" transform="translate(-0.63 -0.24)"/><path class="cls-2" d="M41.79,6H45V3.14H41.79Z" transform="translate(-0.63 -0.24)"/><path class="cls-2" d="M16.46,14.75v-2.9H10.13v2.9Z" transform="translate(-0.63 -0.24)"/><path class="cls-2" d="M45,11.85v2.9H38.62v-2.9Z" transform="translate(-0.63 -0.24)"/><path class="cls-1" d="M14.88,69.89c4.37,0,7.91-3.25,7.91-7.25s-3.54-7.26-7.91-7.26S7,58.63,7,62.64,10.51,69.89,14.88,69.89Z" transform="translate(-0.63 -0.24)"/><path class="cls-1" d="M56,69.89c4.37,0,7.91-3.25,7.91-7.25S60.41,55.38,56,55.38s-7.92,3.25-7.92,7.26S51.67,69.89,56,69.89Z" transform="translate(-0.63 -0.24)"/><path class="cls-2" d="M14.88,67a4.37,4.37,0,1,0,0-8.71,4.37,4.37,0,1,0,0,8.71Z" transform="translate(-0.63 -0.24)"/><path class="cls-2" d="M56,67a4.37,4.37,0,1,0-4.75-4.35A4.57,4.57,0,0,0,56,67Z" transform="translate(-0.63 -0.24)"/><path class="cls-4" d="M22.79,38v-2.9h9.5V38h3.17v8.7H32.29v2.91h-9.5V43.77H26v2.9h3.17v-2.9h3.16v-2.9H29.13V38H26v2.9H22.79v5.8H19.63V38Z" transform="translate(-0.63 -0.24)"/></svg>