<svg width="73" height="73" viewBox="0 0 73 73" fill="none" xmlns="http://www.w3.org/2000/svg">
<rect x="3.85754" y="12.1121" width="9.00326" height="8.90322" transform="rotate(-90 3.85754 12.1121)" fill="white"/>
<path d="M68.4504 24.2689C69.0541 23.6829 69.0541 22.7329 68.4504 22.1469L62.2987 16.1748C61.695 15.5888 60.7164 15.5888 60.1127 16.1748L26.8372 48.4782C26.2336 49.0642 26.2336 50.0143 26.8372 50.6003L32.989 56.5724C33.5926 57.1584 34.5713 57.1584 35.1749 56.5724L68.4504 24.2689Z" fill="white"/>
<path d="M33.5348 60.1295H15.7284V63.1306H33.5348V60.1295Z" fill="white"/>
<path d="M60.2193 15.5252C60.8105 14.9512 61.769 14.9512 62.3602 15.5252L68.9192 21.8925C69.5104 22.4664 69.5104 23.397 68.9192 23.9709L67.8037 25.0538L59.1038 16.6081L60.2193 15.5252Z" fill="#24306E"/>
<path fill-rule="evenodd" clip-rule="evenodd" d="M66.6649 25.7065L58.8442 18.1142L58.3128 17.6008L33.5829 41.6082L30.8662 38.9709L28.6803 41.093L41.3351 53.3781L43.521 51.256L42.1121 49.8883L48.3736 43.8097V63.1306H36.2029C35.3136 59.1291 32.4457 57.1284 27.5994 57.1284H21.664C16.8177 57.1284 13.9499 59.1291 13.0605 63.1306H9.793V63.1342C3.85751 63.253 0.889771 66.2529 0.889771 72.1338H9.793V69.1327H4.97028C6.12843 67.4102 8.1462 66.1316 10.164 66.1316H63.2123C65.1494 66.1316 67.0865 67.4102 68.1983 69.1327H21.664V72.1338H72.1156C72.1156 66.1316 69.1478 63.1306 63.2123 63.1306H57.2769V35.1666L66.8284 25.8941L66.65 25.7209L66.6649 25.7065ZM54.3091 38.0476L51.3414 40.9286V63.1306H54.3091V38.0476ZM35.7688 43.7303L58.314 21.8437L62.3108 25.7237L39.7656 47.6103L35.7688 43.7303ZM27.5994 60.1295C29.5365 60.1295 31.4736 61.408 32.5854 63.1306H16.678C17.7899 61.408 19.7269 60.1295 21.664 60.1295H27.5994Z" fill="#24306E"/>
<path d="M34.7701 48.7628L27.9304 42.1229L25.7444 44.245L32.5841 50.8849L34.7701 48.7628Z" fill="#24306E"/>
<path d="M36.9916 50.9199L40.5847 54.4081L38.3988 56.5302L34.8056 53.042L36.9916 50.9199Z" fill="#24306E"/>
<path d="M12.7607 69.1327H15.7285V72.1338H12.7607V69.1327Z" fill="#24306E"/>
<path d="M22.6531 24.4805L24.839 22.3585L22.6531 20.2364L24.8391 18.1143L27.025 20.2364L29.211 18.1143L31.3969 20.2363L29.2109 22.3585L31.3969 24.4806L29.211 26.6027L27.025 24.4806L24.8391 26.6026L22.6531 24.4805Z" fill="#24306E"/>
<path d="M8.47611 35.2418L6.29016 37.3639L8.47611 39.486L6.29016 41.6081L8.47611 43.7302L10.6621 41.6081L12.848 43.7302L15.034 41.6081L12.848 39.486L15.034 37.3639L12.848 35.2418L10.6621 37.3639L8.47611 35.2418Z" fill="#24306E"/>
<path d="M3.85769 3.10881V0.107727H12.7609V3.10881L15.7287 3.10881V12.1121H12.7609V15.1132H3.85769V12.1121L3.85769 9.11099H6.82543V12.1121H9.79318V9.11099H12.7609V6.1099H9.79318V3.10881H6.82543V6.1099H3.85769V12.1121L0.889771 12.1115V3.10822L3.85769 3.10881Z" fill="#24306E"/>
</svg>
