<svg id="Слой_1" data-name="Слой 1" xmlns="http://www.w3.org/2000/svg" viewBox="0 0 71.23 72.03"><defs><style>.cls-1,.cls-2{fill:#fff;}.cls-2{fill-rule:evenodd;}</style></defs><rect class="cls-1" x="2.46" y="2.5" width="8.9" height="9"/><path class="cls-1" d="M68.45,24.27a1.47,1.47,0,0,0,0-2.12l-6.15-6a1.6,1.6,0,0,0-2.19,0L26.84,48.48a1.46,1.46,0,0,0,0,2.12l6.15,6a1.56,1.56,0,0,0,2.18,0Z" transform="translate(-1.4 -0.61)"/><path class="cls-1" d="M33.53,60.13H15.73v3h17.8Z" transform="translate(-1.4 -0.61)"/><path class="cls-1" d="M60.22,15.53a1.53,1.53,0,0,1,2.14,0l6.56,6.36a1.44,1.44,0,0,1,0,2.08L67.8,25.05l-8.7-8.44Z" transform="translate(-1.4 -0.61)"/><path class="cls-2" d="M67.17,26.21l-7.82-7.59-.53-.51-24.73,24-2.72-2.63L29.19,41.6,41.84,53.88,44,51.76l-1.41-1.37,6.26-6.07V63.64H36.71q-1.34-6-8.6-6H22.17q-7.28,0-8.6,6H10.3q-8.91.18-8.9,9h8.9v-3H5.48a6.58,6.58,0,0,1,5.19-3H63.72a6.28,6.28,0,0,1,5,3H22.17v3H72.62q0-9-8.9-9H57.78v-28l9.55-9.27-.17-.17ZM54.81,38.55l-3,2.88V63.64h3ZM36.27,44.24,58.82,22.35l4,3.88L40.27,48.12Zm-8.16,16.4a6.27,6.27,0,0,1,5,3H17.18a6.29,6.29,0,0,1,5-3Z" transform="translate(-1.4 -0.61)"/><path class="cls-1" d="M34.77,48.76l-6.84-6.64-2.19,2.12,6.84,6.64Z" transform="translate(-1.4 -0.61)"/><path class="cls-1" d="M37,50.92l3.59,3.49L38.4,56.53,34.81,53Z" transform="translate(-1.4 -0.61)"/><path class="cls-1" d="M12.76,69.13h3v3h-3Z" transform="translate(-1.4 -0.61)"/><path class="cls-1" d="M23.16,25l2.18-2.13-2.18-2.12,2.18-2.12,2.19,2.12,2.19-2.12,2.18,2.12-2.18,2.12L31.9,25l-2.18,2.12L27.53,25l-2.19,2.12Z" transform="translate(-1.4 -0.61)"/><path class="cls-1" d="M9,35.75,6.8,37.87,9,40,6.8,42.11,9,44.24l2.19-2.13,2.18,2.13,2.19-2.13L13.35,40l2.19-2.12-2.19-2.12-2.18,2.12Z" transform="translate(-1.4 -0.61)"/><path class="cls-1" d="M4.36,3.61v-3h8.91v3h3v9h-3v3H4.36v-6h3v3h3v-3h3v-3h-3v-3h-3v3h-3v6h-3v-9Z" transform="translate(-1.4 -0.61)"/></svg>