<svg width="80" height="79" viewBox="0 0 80 79" fill="none" xmlns="http://www.w3.org/2000/svg">
<path d="M70.1065 56.9453C73.8815 54.6715 76.3995 50.5829 76.3995 45.9171C76.3995 38.7761 70.5013 32.9872 63.2256 32.9872C55.9499 32.9872 50.0517 38.7761 50.0517 45.9171C50.0517 50.5829 52.5697 54.6715 56.3447 56.9453C54.5896 57.6583 52.9737 58.6452 51.5814 59.875C48.4932 62.603 46.7582 66.3028 46.7582 70.1607V78.2419H79.6929V70.1607C79.6929 66.3028 77.958 62.603 74.8698 59.875C73.4775 58.6452 71.8616 57.6583 70.1065 56.9453Z" fill="white"/>
<path d="M30.2909 33.7513H33.5843V43.484H30.2909V33.7513Z" fill="#24306E"/>
<path d="M30.2909 46.7282H33.5843V49.9724H30.2909V46.7282Z" fill="#24306E"/>
<path d="M33.5844 20.7743V17.5301C40.1713 17.5301 43.4648 20.7743 43.4648 27.2628L40.1713 27.2628C40.1713 24.0185 36.8778 20.7743 33.5844 20.7743Z" fill="#24306E"/>
<path d="M33.5843 33.7513L33.5844 36.9955C40.1713 36.9955 43.4648 33.7512 43.4648 27.2628L40.1713 27.2628C40.1713 30.507 36.8778 33.7513 33.5843 33.7513Z" fill="#24306E"/>
<path d="M33.5844 20.7743V17.5301C26.9974 17.5301 23.7039 20.7743 23.7039 27.2628L26.9974 27.2628C26.9974 24.0185 30.2909 20.7743 33.5844 20.7743Z" fill="#24306E"/>
<path d="M56.6824 7.12736L17.3356 7.12736V10.3121L56.6824 10.3121C59.9613 10.3121 63.2402 13.4968 63.2402 16.6815V35.7897H66.5191V16.6815C66.5191 10.3121 63.2402 7.12736 56.6824 7.12736Z" fill="#24306E"/>
<path d="M17.117 55.6145C13.9693 55.6145 10.5301 52.7324 10.5301 49.6751V16.0445H7.2366V49.6751C7.2366 55.7897 10.3843 58.847 16.6798 58.847L35.5663 58.847V55.6145H17.117Z" fill="#24306E"/>
<path d="M37.9271 58.847V55.6145L44.2226 55.5034V58.847H37.9271Z" fill="#24306E"/>
<path d="M50.0517 42.6846C50.0517 36.2197 53.3452 32.9872 59.9321 32.9872H66.5191C73.106 32.9872 76.3995 36.2197 76.3995 42.6846H79.6929V49.1496H76.3995C76.3995 55.6146 73.106 58.847 66.5191 58.847V55.6146C69.8125 55.6146 73.106 52.3821 73.106 49.1496V42.6846C73.106 39.4522 69.8125 36.2197 66.5191 36.2197H59.9321C56.6386 36.2197 53.3452 39.4522 53.3452 42.6846V49.1496H46.7582V42.6846H50.0517Z" fill="#24306E"/>
<rect x="0.649658" y="3.89488" width="16.4673" height="9.69744" fill="white"/>
<path fill-rule="evenodd" clip-rule="evenodd" d="M3.94314 3.9062V0.6624L13.8237 0.662399V3.89461H17.117L17.117 13.6396H13.8237V16.8834H3.94314V13.6396H0.649658V3.90677L3.94314 3.9062ZM7.23665 13.6391V10.3948H3.94317V7.15048H7.23665V3.90667H10.53V7.15048H13.8235V7.12709L13.8235 10.3953L10.53 10.3948V13.6391H7.23665Z" fill="#24306E"/>
</svg>
