<svg id="Слой_1" data-name="Слой 1" xmlns="http://www.w3.org/2000/svg" viewBox="0 0 72.96 67.93"><defs><style>.cls-1{fill:#fff;}</style></defs><path class="cls-1" d="M51.68,2.94c-5,0-9.12,3.8-9.12,8.49v5.66c0,4.69,4.09,8.49,9.12,8.49H63.84c5,0,9.12-3.8,9.12-8.49V11.43c0-4.69-4.08-8.49-9.12-8.49Z" transform="translate(0 -0.11)"/><path class="cls-1" d="M9.12,19.92c-5,0-9.12,3.8-9.12,8.49V39.73c0,4.69,4.09,8.5,9.12,8.5h15.2c5,0,9.12-3.81,9.12-8.5V28.41c0-4.69-4.08-8.49-9.12-8.49Z" transform="translate(0 -0.11)"/><rect class="cls-1" x="57.76" y="2.83" width="15.2" height="8.49"/><path class="cls-1" d="M42.56,14.26q0-8.49,9.12-8.49h6.08V8.6H51.68c-3,0-6.08,2.83-6.08,5.66v8.49h-3Z" transform="translate(0 -0.11)"/><path class="cls-1" d="M45.6,25.58h-3V22.75h-3v5.66h-3v2.83h3V28.41H45.6Z" transform="translate(0 -0.11)"/><path class="cls-1" d="M73,17.09q0,8.49-9.12,8.49H45.6V22.75H63.84c3,0,6.08-2.83,6.08-5.66V14.26h3Z" transform="translate(0 -0.11)"/><path class="cls-1" d="M54.72,17.09h-3v2.83h3Z" transform="translate(0 -0.11)"/><path class="cls-1" d="M60.8,17.09h-3v2.83h3Z" transform="translate(0 -0.11)"/><path class="cls-1" d="M13.47,28.93h3.37V32H13.47Z" transform="translate(0 -0.11)"/><path class="cls-1" d="M13.47,38.19h10.1v3.09H13.47Z" transform="translate(0 -0.11)"/><path class="cls-1" d="M10.1,35.1h3.37v3.09H10.1Z" transform="translate(0 -0.11)"/><path class="cls-1" d="M23.57,35.1h3.37v3.09H23.57Z" transform="translate(0 -0.11)"/><path class="cls-1" d="M20.2,28.93h3.37V32H20.2Z" transform="translate(0 -0.11)"/><path class="cls-1" d="M3,32.19v6.29H0V32.19q0-9.43,10-9.44H23.22v2.83H10C6.64,25.58,3,29,3,32.19Z" transform="translate(0 -0.11)"/><path class="cls-1" d="M10,48.23C3.32,48.23,0,44.77,0,38.48H3c0,4.08,3,6.92,7.46,6.92H30.4v2.83Z" transform="translate(0 -0.11)"/><path class="cls-1" d="M36.48,48.23h-3v-16c0-6.61-3-9.44-10.22-9.44v2.83c4.14,0,7.18,2.83,7.18,6.61v16h3v2.83h3Z" transform="translate(0 -0.11)"/><path class="cls-1" d="M30.4,11.43c-3,0-6.08,2.83-6.08,5.66v5.66h-3V17.09q0-8.49,9.12-8.49H45.6v2.83Z" transform="translate(0 -0.11)"/><path class="cls-1" d="M21.28,59.55Q21.28,68,30.4,68h6.08V65.21H30.4c-3,0-6.08-2.83-6.08-5.66V45.4h-3Z" transform="translate(0 -0.11)"/><path class="cls-1" d="M48.64,59.55c0,2.83-3,5.66-6.08,5.66V68q9.12,0,9.12-8.49v-34h-3Z" transform="translate(0 -0.11)"/><path class="cls-1" d="M39.52,59.55H33.44v2.83h6.08Z" transform="translate(0 -0.11)"/><path class="cls-1" d="M60.8,2.94V.11h9.13V2.94h3v8.49h-3v2.83H60.8V8.6h3v2.83h3V8.6h3.05V5.77H66.88V2.94h-3V5.77h-3v5.66h-3V2.94Z" transform="translate(0 -0.11)"/></svg>